{
    "asset": {
        "generator": "COLLADA2GLTF",
        "version": "2.0"
    },
    "scenes": [
        {
            "nodes": [
                0
            ]
        }
    ],
    "scene": 0,
    "nodes": [
        {
            "children": [
                1
            ],
            "name": "Y_UP"
        },
        {
            "mesh": 0,
            "name": "node"
        }
    ],
    "meshes": [
        {
            "primitives": [
                {
                    "attributes": {
                        "NORMAL": 1,
                        "POSITION": 2
                    },
                    "indices": 0,
                    "mode": 4
                }
            ],
            "name": "shape0"
        }
    ],
    "accessors": [
        {
            "bufferView": 0,
            "byteOffset": 0,
            "componentType": 5123,
            "count": 2580,
            "max": [
                1665
            ],
            "min": [
                0
            ],
            "type": "SCALAR"
        },
        {
            "bufferView": 1,
            "byteOffset": 0,
            "componentType": 5126,
            "count": 1666,
            "max": [
                1.0,
                1.0,
                1.0
            ],
            "min": [
                -1.0,
                -1.0,
                -1.0
            ],
            "type": "VEC3"
        },
        {
            "bufferView": 1,
            "byteOffset": 19992,
            "componentType": 5126,
            "count": 1666,
            "max": [
                -37.45199966430664,
                2.2300000190734865,
                30.503999710083009
            ],
            "min": [
                -83.73200225830078,
                -87.26799774169922,
                26.799999237060548
            ],
            "type": "VEC3"
        }
    ],
    "bufferViews": [
        {
            "buffer": 0,
            "byteOffset": 39984,
            "byteLength": 5160,
            "target": 34963
        },
        {
            "buffer": 0,
            "byteOffset": 0,
            "byteLength": 39984,
            "byteStride": 12,
            "target": 34962
        }
    ],
    "buffers": [
        {
            "byteLength": 45144,
            "uri": "data:application/octet-stream;base64,"
        }
    ]
}
