{
    "asset": {
        "generator": "COLLADA2GLTF",
        "version": "2.0"
    },
    "scenes": [
        {
            "nodes": [
                0
            ]
        }
    ],
    "scene": 0,
    "nodes": [
        {
            "children": [
                1
            ],
            "name": "Y_UP"
        },
        {
            "mesh": 0,
            "name": "node"
        }
    ],
    "meshes": [
        {
            "primitives": [
                {
                    "attributes": {
                        "NORMAL": 1,
                        "POSITION": 2
                    },
                    "indices": 0,
                    "mode": 4
                }
            ],
            "name": "shape0"
        }
    ],
    "accessors": [
        {
            "bufferView": 0,
            "byteOffset": 0,
            "componentType": 5123,
            "count": 3114,
            "max": [
                1284
            ],
            "min": [
                0
            ],
            "type": "SCALAR"
        },
        {
            "bufferView": 1,
            "byteOffset": 0,
            "componentType": 5126,
            "count": 1285,
            "max": [
                1.0,
                1.0,
                1.0
            ],
            "min": [
                -1.0,
                -1.0,
                -1.0
            ],
            "type": "VEC3"
        },
        {
            "bufferView": 1,
            "byteOffset": 15420,
            "componentType": 5126,
            "count": 1285,
            "max": [
                -513.8579711914063,
                128.92999267578126,
                47.48400115966797
            ],
            "min": [
                -567.6420288085938,
                84.73400115966797,
                34.48199844360352
            ],
            "type": "VEC3"
        }
    ],
    "bufferViews": [
        {
            "buffer": 0,
            "byteOffset": 30840,
            "byteLength": 6228,
            "target": 34963
        },
        {
            "buffer": 0,
            "byteOffset": 0,
            "byteLength": 30840,
            "byteStride": 12,
            "target": 34962
        }
    ],
    "buffers": [
        {
            "byteLength": 37068,
            "uri": "data:application/octet-stream;base64,"
        }
    ]
}
