{
    "asset": {
        "generator": "COLLADA2GLTF",
        "version": "2.0"
    },
    "scenes": [
        {
            "nodes": [
                0
            ]
        }
    ],
    "scene": 0,
    "nodes": [
        {
            "children": [
                1
            ],
            "name": "Y_UP"
        },
        {
            "mesh": 0,
            "name": "node"
        }
    ],
    "meshes": [
        {
            "primitives": [
                {
                    "attributes": {
                        "NORMAL": 1,
                        "POSITION": 2
                    },
                    "indices": 0,
                    "mode": 4
                }
            ],
            "name": "shape0"
        }
    ],
    "accessors": [
        {
            "bufferView": 0,
            "byteOffset": 0,
            "componentType": 5123,
            "count": 11856,
            "max": [
                8891
            ],
            "min": [
                0
            ],
            "type": "SCALAR"
        },
        {
            "bufferView": 1,
            "byteOffset": 0,
            "componentType": 5126,
            "count": 8892,
            "max": [
                0.999970018863678,
                0.9999499917030336,
                1.0
            ],
            "min": [
                -1.0,
                -0.9998909831047058,
                -1.0
            ],
            "type": "VEC3"
        },
        {
            "bufferView": 1,
            "byteOffset": 106704,
            "componentType": 5126,
            "count": 8892,
            "max": [
                34.42129898071289,
                34.42229843139649,
                25.95199966430664
            ],
            "min": [
                -34.41709899902344,
                -34.41790008544922,
                0.0
            ],
            "type": "VEC3"
        }
    ],
    "bufferViews": [
        {
            "buffer": 0,
            "byteOffset": 213408,
            "byteLength": 23712,
            "target": 34963
        },
        {
            "buffer": 0,
            "byteOffset": 0,
            "byteLength": 213408,
            "byteStride": 12,
            "target": 34962
        }
    ],
    "buffers": [
        {
            "byteLength": 237120,
            "uri": "data:application/octet-stream;base64,"
        }
    ]
}
